<svg width="30" height="30" viewBox="0 0 30 30" fill="none"
  xmlns="http://www.w3.org/2000/svg">
  <g clip-path="url(#clip0_1604_1486)">
    <path d="M15 0C23.284 0 30 6.71602 30 15C30 23.284 23.284 30 15 30C6.71602 30 0 23.284 0 15C0 6.71602 6.71602 0 15 0Z" fill="#292929"/>
    <path d="M9.30294 12.8859L11.1164 14.6994L12.9299 12.8859C13.4109 12.4049 13.6758 11.7609 13.6758 11.0724C13.6758 10.384 13.4109 9.74003 12.9299 9.25897C12.4301 8.75917 11.7733 8.50897 11.1164 8.50897C10.4596 8.50897 9.80275 8.75917 9.30294 9.25897C8.30275 10.2592 8.30275 11.8863 9.30294 12.8859Z" fill="#AFAFAF"/>
    <path d="M5.39708 13.1654C5.18673 13.3775 4.69161 13.967 4.64943 14.8547C4.59904 15.8947 5.21017 16.6019 5.39825 16.7941L9.30353 20.6982C9.78458 21.1793 10.4285 21.4441 11.117 21.4441C11.8055 21.4441 12.4494 21.1793 12.9305 20.6982C13.4115 20.2172 13.6764 19.5732 13.6764 18.8847C13.6764 18.1963 13.4115 17.5523 12.9305 17.0713C12.2789 16.4203 11.6279 15.7693 10.977 15.1183C10.326 14.4673 9.67501 13.8164 9.02345 13.1654C8.7715 12.9117 8.18439 12.208 8.15802 11.1457C8.1504 10.8345 8.19259 10.5515 8.26349 10.2984L5.3965 13.1654H5.39708Z" fill="#EEEEEE"/>
    <path d="M18.9176 15.2578L17.1041 17.0713C16.6231 17.5523 16.3582 18.1963 16.3582 18.8848C16.3582 19.5732 16.6231 20.2172 17.1041 20.6982C17.5852 21.1793 18.2291 21.4441 18.9176 21.4441C19.6061 21.4441 20.25 21.1793 20.7311 20.6982C21.2121 20.2172 21.477 19.5732 21.477 18.8848C21.477 18.1963 21.2121 17.5523 20.7311 17.0713L18.9176 15.2578Z" fill="#AFAFAF"/>
    <path d="M24.6369 16.7912C24.8473 16.5791 25.3424 15.9891 25.3846 15.102C25.435 14.0614 24.8239 13.3547 24.6358 13.1631L20.7299 9.25842C20.2301 8.75862 19.5733 8.50842 18.9164 8.50842C18.2596 8.50842 17.6028 8.75862 17.103 9.25842C16.6219 9.73948 16.3571 10.3834 16.3571 11.0719C16.3571 11.7604 16.6219 12.4043 17.103 12.8854C17.7709 13.5528 18.4389 14.2207 19.1069 14.8887C19.7408 15.5227 20.3748 16.1567 21.0094 16.7906C21.2614 17.0444 21.8485 17.7475 21.8748 18.8104C21.8824 19.1215 21.8403 19.4045 21.7694 19.6576L24.6364 16.7906L24.6369 16.7912Z" fill="#EEEEEE"/>
  </g>
  <defs>
    <clipPath id="clip0_1604_1486">
      <rect width="30" height="30" fill="white"/>
    </clipPath>
  </defs>
</svg>
